<?xml version="1.0" standalone="no"?>
<!DOCTYPE svg PUBLIC "-//W3C//DTD SVG 20010904//EN"
 "http://www.w3.org/TR/2001/REC-SVG-20010904/DTD/svg10.dtd">
<svg version="1.0" xmlns="http://www.w3.org/2000/svg"
 width="1024.000000pt" height="1024.000000pt" viewBox="0 0 1024.000000 1024.000000"
 preserveAspectRatio="xMidYMid meet">

<g transform="translate(0.000000,1024.000000) scale(0.100000,-0.100000)"
fill="#000000" stroke="none">
<path d="M4920 8522 c-221 -139 -493 -331 -614 -432 -11 -10 -66 -55 -121
-101 -147 -122 -180 -153 -405 -379 -467 -467 -784 -911 -1075 -1505 -430
-878 -646 -1895 -621 -2925 5 -227 36 -627 52 -687 6 -23 6 -23 235 -23 818 0
1579 -226 2234 -663 108 -72 324 -235 355 -267 34 -36 122 -100 130 -95 5 3
72 56 147 117 288 231 671 459 998 595 97 40 362 130 465 157 370 99 651 136
1039 136 l260 0 5 33 c37 223 51 457 51 857 -1 464 -21 703 -94 1140 -92 551
-315 1213 -576 1717 -436 839 -1011 1507 -1808 2098 -150 110 -472 325 -489
325 -7 0 -83 -44 -168 -98z m307 -255 c380 -257 600 -437 934 -767 417 -412
784 -922 1063 -1476 320 -637 516 -1334 592 -2099 31 -312 30 -871 -2 -1191
l-6 -61 -172 -6 c-541 -21 -1006 -119 -1477 -312 -343 -141 -771 -392 -1066
-627 -7 -6 -29 5 -65 34 -380 308 -816 548 -1268 698 -400 133 -753 197 -1210
221 -118 7 -216 12 -217 13 0 0 -7 64 -15 141 -20 211 -17 842 6 1060 42 413
81 648 162 970 45 177 133 467 163 538 12 27 21 53 21 58 0 30 138 348 239
554 171 345 329 603 535 875 334 443 714 818 1166 1154 114 84 458 316 470
316 5 0 71 -42 147 -93z"/>
<path d="M4760 7698 c-18 -13 -42 -40 -52 -60 -18 -35 -19 -41 -4 -90 16 -57
61 -109 108 -127 38 -14 95 4 135 44 28 28 33 40 33 82 0 54 -37 126 -81 157
-34 23 -99 20 -139 -6z m93 -29 c34 -15 77 -86 77 -126 0 -40 -40 -83 -76 -83
-32 0 -81 44 -95 88 -22 64 -10 104 36 122 27 12 31 12 58 -1z"/>
<path d="M5428 7662 c-49 -56 -149 -206 -146 -219 7 -35 28 -20 89 61 34 47
65 84 67 82 2 -3 -8 -46 -23 -96 -45 -158 -24 -174 104 -80 46 34 85 59 88 57
2 -3 -21 -44 -53 -91 -48 -72 -55 -88 -44 -101 17 -21 27 -11 105 101 79 113
82 120 60 144 -25 27 -44 25 -85 -8 -64 -52 -139 -102 -143 -94 -3 4 9 53 25
109 26 86 28 105 18 118 -25 30 -46 36 -62 17z"/>
<path d="M4572 7571 c-10 -6 -5 -31 23 -117 19 -60 35 -114 35 -121 0 -7 -44
19 -97 57 -53 39 -100 70 -103 70 -3 0 -12 -5 -20 -10 -20 -13 5 -37 134 -129
92 -65 102 -70 120 -57 15 10 20 23 19 48 -3 44 -75 261 -88 265 -5 1 -16 -1
-23 -6z"/>
<path d="M5765 7357 c-28 -18 -80 -53 -117 -78 -38 -24 -68 -50 -68 -57 0 -22
28 -25 59 -6 30 18 31 18 73 -12 41 -29 43 -33 41 -77 -2 -37 1 -49 16 -56 17
-9 21 -4 39 47 83 235 85 245 53 262 -30 16 -43 13 -96 -23z m45 -91 c-12 -31
-24 -56 -28 -56 -9 1 -62 47 -62 54 0 11 105 76 108 67 1 -4 -7 -34 -18 -65z"/>
<path d="M4321 7366 c-10 -12 -1 -29 50 -93 108 -137 118 -146 135 -132 8 7
12 19 9 27 -10 26 -160 211 -171 212 -6 0 -17 -6 -23 -14z"/>
<path d="M4225 7289 c-5 -6 -39 -37 -74 -69 -54 -50 -62 -61 -51 -75 11 -13
16 -12 42 10 17 14 34 25 38 23 4 -2 40 -41 80 -88 40 -47 80 -85 89 -85 32 0
21 34 -31 95 -29 34 -64 75 -76 90 l-24 29 26 28 c14 15 26 33 26 40 0 15 -31
16 -45 2z"/>
<path d="M5095 7272 c-390 -219 -788 -551 -1060 -887 -470 -580 -733 -1232
-837 -2075 -15 -120 -18 -743 -5 -882 l9 -88 97 0 c118 0 375 -24 491 -45 183
-34 452 -114 579 -172 324 -148 497 -253 661 -399 108 -96 86 -94 179 -15 337
284 845 507 1311 575 149 22 384 37 461 30 54 -5 67 -4 72 9 3 8 13 91 23 184
20 201 15 617 -11 833 -81 696 -298 1288 -673 1835 -119 174 -223 298 -396
470 -168 167 -259 248 -436 382 -126 95 -397 274 -413 273 -1 0 -24 -13 -52
-28z m121 -186 c172 -107 364 -250 364 -272 0 -6 -31 -37 -69 -68 -83 -68
-186 -175 -230 -240 -61 -88 -85 -154 -85 -233 -1 -75 -7 -88 -26 -53 -16 29
-27 25 -40 -16 -28 -82 7 -202 88 -309 47 -62 62 -67 62 -22 0 82 35 291 66
400 49 168 169 417 194 402 5 -3 -13 -47 -39 -98 -26 -50 -64 -139 -84 -196
-61 -169 -129 -551 -99 -551 6 0 28 14 47 32 117 102 205 289 145 305 -25 7
-25 8 -1 42 22 31 56 127 66 189 6 38 5 42 -14 42 -29 0 -26 14 10 64 19 28
39 76 54 136 13 51 28 97 33 102 19 19 269 -216 426 -401 262 -308 492 -717
635 -1124 22 -65 41 -122 41 -126 0 -4 -53 -20 -117 -35 -507 -122 -1067 -397
-1478 -724 l-67 -54 -526 525 c-290 289 -599 595 -687 680 l-160 155 28 59
c74 150 244 409 385 584 154 190 369 402 567 556 108 84 413 289 435 292 3 1
37 -19 76 -43z m-1399 -1785 c231 -225 1489 -1478 1793 -1785 l260 -263 -93
-37 c-168 -68 -416 -211 -570 -328 l-78 -59 -42 33 c-23 18 -44 35 -47 39 -16
20 -241 164 -335 214 -396 213 -773 324 -1205 356 -85 6 -159 15 -165 21 -6 5
-10 134 -10 346 0 366 8 459 66 782 54 301 121 526 246 828 3 7 9 12 13 10 5
-2 80 -72 167 -157z m2213 -537 c0 -20 -30 -30 -40 -14 -10 16 10 39 27 33 7
-3 13 -12 13 -19z m-92 -11 c5 -18 -28 -29 -38 -12 -5 7 -6 17 -3 22 7 12 35
5 41 -10z m180 -10 c2 -15 -2 -21 -15 -19 -22 1 -35 28 -19 38 17 12 31 4 34
-19z m-270 -30 c-4 -22 -48 -31 -48 -10 0 19 10 27 32 27 13 0 18 -6 16 -17z
m352 -2 c0 -23 -36 -35 -44 -14 -8 20 1 33 25 33 12 0 19 -7 19 -19z m665 -13
c20 -90 57 -354 71 -508 13 -143 15 -238 10 -420 -3 -129 -10 -251 -14 -270
l-8 -35 -164 -12 c-230 -17 -549 -77 -682 -128 -13 -5 -97 72 -358 331 -187
186 -340 343 -340 349 0 14 214 156 370 245 149 85 452 234 595 293 53 21 495
175 507 176 4 1 10 -9 13 -21z m-1085 -53 c0 -18 -32 -28 -41 -13 -4 7 -3 18
2 25 12 14 39 6 39 -12z m-54 -90 c3 -18 -32 -21 -38 -3 -6 18 15 39 26 27 6
-5 11 -16 12 -24z m-6 -74 c0 -22 -30 -37 -41 -20 -11 18 1 39 22 39 12 0 19
-7 19 -19z"/>
<path d="M5137 6517 c-32 -17 -84 -58 -116 -90 l-58 -57 -64 16 c-104 27 -225
16 -399 -36 -80 -23 -149 -47 -155 -52 -5 -5 -10 -28 -10 -50 0 -39 -2 -42
-34 -50 -27 -8 -32 -13 -28 -31 2 -12 46 -173 97 -357 51 -184 104 -377 117
-427 26 -95 28 -97 73 -80 8 3 44 13 79 22 36 9 70 19 77 22 6 2 32 -27 58
-65 54 -82 92 -119 44 -43 -54 85 -66 106 -67 112 -2 13 160 59 226 65 53 4
82 1 133 -15 36 -11 83 -21 106 -21 37 0 46 6 107 69 39 41 88 80 119 95 62
30 236 76 291 76 l37 0 0 -62 c0 -75 7 -74 11 2 3 67 7 80 26 80 8 0 34 9 59
20 34 16 44 25 40 38 -7 20 -120 430 -142 512 -8 30 -31 116 -50 190 -20 74
-38 137 -40 139 -14 15 -28 -31 -34 -116 -6 -95 -5 -104 42 -288 27 -104 60
-232 75 -283 22 -77 24 -95 13 -102 -8 -5 -59 -21 -115 -36 -55 -14 -147 -45
-205 -67 -90 -35 -114 -49 -168 -100 -34 -33 -64 -58 -66 -56 -3 2 -14 40 -26
84 -36 138 -83 295 -87 291 -4 -4 8 -51 62 -244 20 -73 35 -136 32 -138 -3 -3
-30 2 -62 11 -106 31 -213 22 -410 -35 -38 -11 -89 -20 -112 -20 -48 0 -39
-19 -98 200 -18 69 -63 233 -99 365 -36 132 -66 249 -66 262 0 19 14 26 117
58 64 20 149 44 187 52 89 19 207 12 267 -14 43 -19 45 -22 63 -94 21 -81 54
-180 55 -164 1 6 -13 60 -29 120 -16 61 -30 118 -30 127 0 26 111 130 176 166
32 17 55 32 49 32 -5 0 -36 -15 -68 -33z"/>
<path d="M4650 6323 c-47 -19 -54 -89 -13 -127 l27 -25 -30 -12 c-69 -28 -95
-45 -101 -67 -3 -13 -3 -26 0 -29 11 -11 107 -13 107 -2 0 6 15 9 33 7 l32 -3
0 -65 c1 -64 8 -90 25 -90 5 0 11 10 13 23 4 20 4 20 6 -4 0 -14 -4 -30 -10
-36 -8 -8 -5 -14 11 -23 13 -7 25 -8 29 -3 3 5 13 2 22 -7 15 -16 14 -17 -15
-15 -46 2 -65 14 -81 49 l-13 31 -1 -33 c-1 -28 4 -35 28 -43 15 -6 33 -21 40
-35 14 -31 14 -30 -5 -48 -19 -19 -54 -21 -78 -3 -16 12 -17 16 -5 34 10 18 9
28 -8 68 l-20 46 -32 -49 c-17 -27 -31 -53 -30 -58 1 -22 67 -98 99 -115 20
-11 55 -19 83 -19 34 0 58 -7 79 -21 16 -12 30 -20 31 -18 1 2 11 21 21 41 10
21 36 53 57 73 55 51 71 86 67 152 l-3 57 -57 20 c-31 11 -60 17 -63 14 -12
-12 28 -101 47 -106 14 -3 18 -12 16 -31 -4 -31 -40 -41 -66 -18 -9 8 -26 17
-38 21 -15 5 -27 28 -48 94 -27 83 -27 89 -13 124 10 23 31 47 57 63 31 20 40
31 38 48 -3 20 -9 22 -61 23 -32 0 -60 -3 -63 -7 -2 -5 -11 -6 -19 -3 -10 4
-12 15 -8 36 7 36 -11 72 -44 87 -13 6 -25 11 -26 10 -1 0 -9 -3 -17 -6z m33
-40 c-7 -2 -13 -11 -13 -19 0 -8 -4 -14 -10 -14 -11 0 -14 23 -3 33 3 4 13 7
22 6 10 0 12 -2 4 -6z m32 -43 c3 -5 1 -10 -4 -10 -6 0 -11 5 -11 10 0 6 2 10
4 10 3 0 8 -4 11 -10z m74 -134 c-9 -8 -10 -7 -5 7 3 10 7 24 7 30 1 7 3 4 6
-7 3 -10 -1 -23 -8 -30z"/>
<path d="M5041 6074 c0 -11 3 -14 6 -6 3 7 2 16 -1 19 -3 4 -6 -2 -5 -13z"/>
<path d="M5052 6040 c0 -8 4 -26 8 -40 6 -20 8 -21 8 -5 0 11 -3 29 -8 40 -5
12 -8 14 -8 5z"/>
<path d="M5290 5723 c0 -35 3 -44 10 -33 13 20 13 67 0 75 -6 4 -10 -12 -10
-42z"/>
<path d="M5719 5583 c-16 -42 -23 -149 -11 -157 7 -4 11 15 10 61 0 38 5 80
11 96 6 15 8 27 6 27 -3 0 -10 -12 -16 -27z"/>
<path d="M5880 5551 c0 -7 -4 -9 -10 -6 -6 4 -10 -6 -10 -23 0 -21 -8 -35 -25
-46 -14 -9 -25 -21 -25 -27 0 -6 7 -3 16 5 17 18 74 22 74 6 0 -20 -52 -115
-91 -166 -43 -56 -51 -78 -18 -48 29 26 119 180 119 203 0 10 -9 25 -21 32
-18 12 -19 18 -9 43 6 16 8 31 5 34 -3 3 -5 0 -5 -7z"/>
<path d="M5750 5388 c-20 -42 -40 -48 -41 -11 -1 16 -5 8 -9 -22 -6 -46 -5
-65 3 -54 41 49 85 119 75 119 -7 0 -20 -15 -28 -32z"/>
<path d="M5662 5380 c0 -14 2 -19 5 -12 2 6 2 18 0 25 -3 6 -5 1 -5 -13z"/>
<path d="M5660 5309 c0 -22 4 -38 8 -35 8 5 4 76 -4 76 -2 0 -4 -18 -4 -41z"/>
<path d="M4820 5326 c0 -14 101 -168 107 -162 4 4 -33 75 -48 91 -13 14 -11
27 4 19 13 -7 10 -4 -35 35 -16 14 -28 21 -28 17z"/>
<path d="M4650 5265 c13 -14 26 -25 28 -25 3 0 -5 11 -18 25 -13 14 -26 25
-28 25 -3 0 5 -11 18 -25z"/>
<path d="M4921 5235 c0 -5 6 -19 14 -29 8 -11 15 -15 15 -10 0 6 -7 19 -15 30
-8 10 -14 15 -14 9z"/>
<path d="M4718 5218 c-3 -7 -3 -33 0 -58 4 -40 9 -48 45 -71 60 -38 148 -80
159 -77 5 2 -30 24 -79 48 -94 48 -134 91 -103 110 25 16 49 11 132 -26 100
-45 141 -57 135 -41 -2 7 -14 14 -28 15 -13 2 -28 11 -33 19 -6 12 -10 12 -16
3 -8 -13 -35 -3 -62 23 -16 15 -84 38 -120 40 -16 1 -24 7 -21 15 3 6 3 12 0
12 -3 0 -7 -6 -9 -12z"/>
<path d="M4750 5151 c0 -11 31 -24 39 -16 3 3 -1 10 -9 15 -19 12 -30 12 -30
1z"/>
<path d="M5420 4873 c0 -11 7 -36 15 -54 l15 -34 -6 45 c-7 48 -24 79 -24 43z"/>
<path d="M3798 4256 c-122 -33 -208 -142 -208 -263 0 -52 36 -143 72 -181 102
-107 223 -126 359 -56 61 30 115 99 97 122 -11 13 -15 11 -33 -14 -94 -132
-255 -153 -372 -50 -56 49 -83 104 -83 171 0 70 14 114 52 159 82 100 251 115
336 30 19 -19 37 -34 42 -34 15 0 51 -102 55 -157 5 -60 8 -69 24 -58 20 12
12 117 -13 170 -47 101 -108 147 -224 166 -32 5 -57 9 -57 8 0 0 -21 -6 -47
-13z"/>
<path d="M4327 3959 c-47 -11 -72 -24 -118 -60 -20 -16 -39 -25 -43 -22 -4 4
-4 0 -1 -8 3 -9 -4 -34 -17 -55 -19 -32 -23 -53 -23 -119 0 -68 5 -88 28 -133
28 -53 83 -101 146 -128 54 -23 161 -18 223 9 54 24 128 95 128 122 0 27 -34
16 -56 -18 -12 -18 -44 -45 -73 -61 -121 -65 -277 -20 -338 98 -24 46 -29 139
-9 189 19 50 79 111 130 132 19 8 62 15 95 15 57 0 83 12 65 30 -15 14 -96 19
-137 9z"/>
<path d="M4495 3921 c-3 -5 9 -20 27 -33 80 -56 110 -107 117 -203 5 -53 10
-70 21 -70 26 0 25 114 -1 174 -35 83 -141 168 -164 132z"/>
<path d="M4779 3613 c-69 -36 -74 -41 -103 -103 -70 -150 -12 -317 132 -383
68 -31 181 -30 242 2 51 27 102 77 126 123 27 52 31 165 7 219 -37 84 -121
159 -154 138 -12 -8 -11 -11 4 -20 83 -49 127 -125 127 -220 0 -134 -98 -229
-235 -229 -161 0 -271 137 -236 294 23 102 104 165 224 174 106 7 103 42 -4
42 -46 0 -71 -7 -130 -37z"/>
<path d="M5916 7130 c-55 -63 -86 -106 -82 -115 9 -24 27 -18 67 21 50 49 75
42 64 -19 -13 -76 -12 -122 5 -122 10 0 20 20 30 63 15 61 16 62 48 62 66 0
104 74 65 130 -25 36 -76 79 -93 80 -9 0 -55 -45 -104 -100z m141 18 c25 -24
29 -48 11 -66 -18 -18 -49 -14 -74 9 l-22 21 25 29 c15 16 29 29 32 29 2 0 15
-10 28 -22z"/>
<path d="M3962 7038 c-7 -7 -12 -20 -12 -30 0 -29 121 -268 136 -268 22 0 26
37 8 65 -17 26 -17 27 24 68 41 41 42 41 77 28 28 -10 39 -10 51 0 22 18 7 29
-120 92 -117 59 -143 66 -164 45z m101 -68 c51 -26 55 -34 30 -62 -25 -27 -36
-22 -65 31 -29 50 -34 65 -20 59 4 -2 28 -14 55 -28z"/>
<path d="M6126 6941 c-69 -69 -97 -104 -93 -115 4 -9 12 -16 19 -16 8 0 58 45
112 99 86 86 98 102 86 115 -7 9 -15 16 -19 16 -3 0 -51 -45 -105 -99z"/>
<path d="M6231 6848 c-49 -46 -93 -93 -96 -106 -11 -36 84 -137 108 -113 6 6
-1 23 -23 51 -35 45 -34 60 6 87 27 17 27 17 54 -15 14 -18 31 -32 37 -32 24
0 19 27 -10 57 l-31 33 29 30 29 30 41 -40 c41 -40 55 -43 55 -10 0 15 -88
110 -103 110 -4 0 -47 -37 -96 -82z"/>
<path d="M3798 6861 c-38 -33 -63 -98 -52 -134 20 -65 105 -137 163 -137 47 0
99 32 115 72 26 60 -5 79 -39 25 -28 -43 -62 -54 -106 -33 -48 24 -81 69 -82
113 -1 29 5 41 33 65 31 26 33 29 18 44 -14 14 -18 13 -50 -15z"/>
<path d="M6387 6659 c-59 -50 -107 -95 -107 -101 0 -16 84 -118 98 -118 27 0
23 31 -7 65 -17 20 -31 39 -30 43 0 4 40 41 89 82 49 41 89 80 89 86 1 6 -5
16 -12 22 -10 8 -39 -11 -120 -79z"/>
<path d="M3629 6644 c-12 -14 -7 -22 36 -60 28 -24 64 -54 82 -66 62 -44 67
-103 10 -129 -30 -14 -58 0 -145 71 -51 41 -66 49 -78 39 -8 -6 -14 -17 -14
-24 0 -14 150 -126 186 -139 82 -27 174 116 117 182 -17 18 -171 142 -177 142
-2 0 -10 -7 -17 -16z"/>
<path d="M6555 6481 c-44 -32 -93 -70 -109 -83 l-29 -25 33 -46 c40 -56 69
-77 108 -77 31 0 68 32 74 65 2 14 13 21 33 23 74 9 87 77 30 155 -20 26 -41
47 -48 47 -6 0 -48 -26 -92 -59z m122 -37 c17 -34 17 -36 -2 -50 -27 -20 -38
-18 -66 12 l-24 26 28 24 c37 32 44 31 64 -12z m-100 -70 c20 -42 10 -67 -30
-72 -26 -3 -57 28 -57 58 0 14 44 49 63 50 4 0 15 -16 24 -36z"/>
<path d="M3444 6337 c-36 -20 -94 -99 -94 -126 0 -6 51 -44 113 -85 128 -84
127 -84 173 11 30 60 28 95 -7 144 -40 57 -134 85 -185 56z m96 -52 c39 -20
70 -62 70 -94 0 -28 -25 -71 -41 -71 -17 0 -159 100 -159 112 0 21 53 68 77
68 13 0 37 -7 53 -15z"/>
<path d="M6695 6219 c-119 -32 -131 -39 -121 -64 5 -13 14 -15 45 -10 38 6 40
5 71 -39 l31 -46 -27 -35 c-22 -29 -24 -38 -14 -50 7 -9 16 -14 21 -13 13 5
189 231 189 242 -1 24 -28 46 -56 45 -16 0 -78 -14 -139 -30z m133 -28 c-1 -5
-20 -28 -42 -51 -40 -44 -40 -44 -67 3 -13 24 -7 29 44 44 53 14 70 15 65 4z"/>
<path d="M3261 6070 c-17 -28 -31 -57 -31 -65 0 -14 34 -39 118 -87 120 -69
119 -69 130 -56 26 32 68 114 64 126 -7 23 -28 12 -51 -28 -25 -45 -30 -46
-71 -25 -36 18 -36 23 -8 70 17 30 19 38 7 45 -17 11 -33 -2 -49 -40 -15 -36
-23 -37 -61 -9 l-29 20 25 43 c14 24 22 46 18 49 -15 16 -33 4 -62 -43z"/>
<path d="M6902 5879 c-113 -61 -135 -80 -113 -102 9 -9 24 -5 62 17 42 23 53
26 60 15 13 -21 11 -28 -21 -81 -33 -53 -38 -83 -15 -91 9 -4 24 11 45 48 l31
54 44 -6 c38 -5 47 -2 69 20 16 16 26 37 26 54 0 36 -45 133 -62 133 -7 0 -64
-28 -126 -61z m133 -28 c18 -37 11 -59 -23 -68 -19 -4 -30 -1 -44 17 -25 30
-23 42 10 62 36 23 39 23 57 -11z"/>
<path d="M3133 5756 c-64 -29 -92 -120 -57 -187 19 -38 102 -79 160 -79 95 0
156 113 105 196 -40 65 -143 99 -208 70z m129 -62 c57 -30 73 -82 37 -128 -26
-33 -75 -35 -135 -5 -50 24 -69 62 -53 108 18 50 81 61 151 25z"/>
<path d="M7033 5645 c-17 -7 -46 -28 -63 -47 -30 -31 -32 -37 -28 -91 3 -45
10 -63 32 -86 34 -35 81 -46 137 -31 124 34 163 155 77 239 -26 26 -40 31 -77
31 -25 -1 -60 -7 -78 -15z m148 -77 c26 -63 -24 -118 -114 -126 -48 -4 -56 -2
-71 19 -43 62 1 132 94 149 46 8 76 -6 91 -42z"/>
<path d="M2980 5461 c0 -14 23 -27 93 -56 197 -80 195 -79 199 -121 4 -46 24
-55 38 -18 26 68 -4 97 -169 163 -141 56 -161 60 -161 32z"/>
<path d="M2940 5343 c-6 -16 -18 -44 -26 -65 -9 -20 -14 -42 -12 -48 4 -12
197 -87 249 -97 24 -4 27 0 44 54 10 32 20 63 22 69 2 6 -3 14 -12 18 -12 4
-21 -6 -36 -39 -22 -50 -22 -50 -68 -34 -27 10 -31 15 -26 33 4 11 8 32 9 46
2 36 -25 32 -38 -7 -15 -44 -19 -46 -59 -29 l-36 15 16 40 c16 40 13 71 -7 71
-6 0 -15 -12 -20 -27z"/>
<path d="M7165 5324 c-60 -24 -113 -48 -119 -54 -13 -13 20 -95 53 -132 48
-53 160 -46 218 14 24 25 28 37 27 81 0 56 -35 137 -57 136 -6 0 -61 -20 -122
-45z m131 -38 c18 -75 -18 -124 -99 -133 -39 -5 -49 -2 -71 20 -14 14 -26 37
-26 50 0 21 11 29 78 55 96 37 110 38 118 8z"/>
<path d="M3100 5055 c-5 -14 -13 -37 -16 -51 -3 -13 -9 -26 -13 -29 -4 -2 -57
12 -117 30 -60 19 -112 35 -116 35 -5 0 -8 -10 -8 -22 0 -20 13 -27 103 -55
166 -53 162 -53 182 0 21 55 24 108 8 114 -7 3 -17 -7 -23 -22z"/>
<path d="M7305 5044 c-168 -52 -178 -58 -156 -92 7 -11 15 -11 46 2 20 9 46
16 56 16 33 0 22 -43 -21 -85 -28 -27 -40 -48 -40 -67 0 -15 4 -28 9 -28 5 0
27 20 50 45 40 43 41 44 90 38 58 -7 97 12 107 51 9 36 -25 146 -45 146 -9 -1
-52 -12 -96 -26z m90 -78 c0 -46 -29 -64 -64 -40 -31 22 -27 60 7 72 45 17 57
11 57 -32z"/>
<path d="M2805 4874 c-23 -25 -52 -115 -41 -132 3 -5 27 -15 53 -22 27 -7 77
-21 112 -31 86 -26 113 -25 109 3 -2 15 -14 24 -43 33 l-40 11 3 52 c3 47 0
55 -27 82 -39 40 -91 41 -126 4z m99 -43 c14 -16 16 -26 8 -48 -7 -23 -14 -27
-37 -25 -47 5 -67 20 -59 45 15 50 56 63 88 28z"/>
<path d="M7536 4795 c7 -16 35 -35 53 -35 22 0 10 31 -15 40 -35 14 -44 12
-38 -5z"/>
<path d="M7338 4767 c-95 -24 -118 -34 -118 -48 0 -10 4 -20 9 -23 5 -3 67 9
137 27 112 28 129 35 129 52 0 28 -22 27 -157 -8z"/>
<path d="M7359 4640 c-61 -18 -99 -62 -99 -114 0 -36 31 -117 47 -123 8 -3 40
0 70 7 l55 12 -6 41 c-8 48 -13 57 -32 57 -9 0 -14 -11 -14 -31 0 -28 -2 -30
-32 -27 -28 2 -34 8 -38 33 -4 17 -4 37 -2 45 6 26 50 51 100 56 62 8 97 -18
109 -79 6 -29 14 -43 27 -45 17 -4 18 1 13 47 -3 27 -14 62 -24 77 -30 46
-105 65 -174 44z"/>
<path d="M2732 4618 c-31 -31 -14 -53 83 -108 52 -30 95 -57 95 -62 0 -4 -15
-9 -32 -12 -18 -3 -62 -11 -98 -16 -97 -16 -100 -18 -100 -50 0 -16 4 -32 10
-35 10 -6 147 -33 216 -42 33 -4 42 -2 48 12 3 10 4 20 2 22 -3 3 -48 12 -100
21 -53 8 -96 19 -96 23 0 4 39 12 88 18 125 17 132 19 132 40 0 24 -20 41
-113 92 -43 24 -73 45 -67 47 6 2 52 -4 101 -13 64 -13 93 -15 101 -7 24 24
-2 38 -108 56 -60 10 -118 20 -129 22 -11 3 -26 -1 -33 -8z"/>
<path d="M7480 4350 c-90 -11 -134 -31 -149 -69 -20 -46 -6 -115 27 -142 25
-20 35 -21 127 -16 55 3 108 9 118 13 26 9 19 50 -8 47 -11 -2 -61 -6 -111 -9
-91 -7 -92 -7 -109 19 -36 55 3 91 115 107 102 14 109 17 103 40 -6 22 -9 22
-113 10z"/>
<path d="M2714 4230 c-11 -4 -33 -22 -47 -40 -21 -25 -27 -42 -27 -79 0 -83
56 -131 154 -131 74 0 102 15 127 67 25 52 20 98 -16 141 -37 44 -134 65 -191
42z m129 -55 c28 -12 38 -23 46 -52 9 -32 8 -42 -8 -63 -35 -48 -179 -32 -196
21 -10 30 4 77 28 94 27 19 85 19 130 0z"/>
<path d="M7435 4033 c-91 -8 -89 -5 -81 -90 7 -84 8 -88 31 -80 11 5 15 21 15
62 l0 55 39 0 c38 0 39 0 46 -46 5 -35 10 -44 23 -42 13 3 17 14 17 48 0 45 0
45 36 48 l37 3 7 -50 c6 -42 10 -51 27 -51 18 0 19 4 13 68 -4 37 -9 70 -12
75 -4 7 -117 7 -198 0z"/>
<path d="M2631 3911 c-14 -26 -14 -93 0 -124 27 -60 153 -87 229 -49 29 14 37
25 48 69 14 57 4 103 -23 103 -12 0 -15 -12 -15 -54 0 -68 -20 -86 -96 -86
-42 0 -59 5 -84 26 -28 24 -31 31 -28 77 3 54 -13 73 -31 38z"/>
<path d="M7372 3728 c2 -84 6 -103 18 -103 12 0 16 15 18 68 2 37 7 67 11 67
5 0 53 -27 109 -60 55 -33 107 -60 116 -60 13 0 16 13 16 73 0 85 -7 117 -26
117 -10 0 -14 -16 -14 -60 0 -33 -2 -60 -5 -60 -9 0 -99 47 -161 84 -32 20
-65 36 -72 36 -10 0 -12 -24 -10 -102z"/>
<path d="M3387 3073 c-34 -93 -57 -164 -57 -179 0 -13 91 -44 129 -44 40 0 23
29 -24 41 -25 6 -47 14 -49 18 -2 3 1 21 6 40 9 31 11 33 44 26 20 -3 42 -9
50 -12 9 -3 14 2 14 16 0 15 -10 23 -39 31 l-39 10 11 36 c9 29 14 34 31 29
12 -3 38 -9 60 -12 30 -5 38 -3 34 8 -4 13 -106 57 -135 58 -6 1 -22 -29 -36
-66z"/>
<path d="M3632 3050 c-31 -13 -46 -56 -31 -92 6 -15 14 -28 18 -28 3 0 16 -15
29 -34 39 -58 3 -89 -65 -55 -44 23 -67 11 -38 -21 25 -27 92 -45 121 -31 32
14 53 51 48 81 -3 14 -21 43 -40 65 -38 45 -41 57 -18 76 13 11 21 10 49 -5
49 -27 79 -1 33 28 -32 20 -79 27 -106 16z"/>
<path d="M6783 3040 c-42 -25 -57 -55 -55 -112 1 -51 20 -96 54 -128 26 -24
105 -27 147 -5 31 15 61 69 61 107 0 45 -22 102 -50 130 -23 23 -37 28 -77 28
-30 0 -60 -7 -80 -20z m125 -45 c26 -33 36 -93 22 -130 -14 -37 -26 -45 -73
-45 -31 0 -40 5 -57 33 -27 44 -27 120 0 147 29 29 83 27 108 -5z"/>
<path d="M6535 2995 c-50 -26 -65 -51 -65 -112 0 -100 48 -163 126 -163 48 0
100 35 86 58 -7 10 -16 9 -45 -3 -48 -20 -83 -6 -102 40 -37 86 -6 155 69 155
30 0 37 3 34 18 -4 23 -64 27 -103 7z"/>
<path d="M3817 2993 c-15 -14 -5 -32 24 -42 35 -12 36 -10 -17 -139 -35 -85
-36 -102 -6 -102 12 0 28 29 57 101 l40 100 43 -6 c37 -6 43 -4 40 10 -4 23
-167 93 -181 78z"/>
<path d="M6338 2943 c-23 -6 -23 -9 13 -127 17 -56 33 -109 35 -118 5 -18 39
-25 47 -10 5 8 -61 244 -71 253 -4 3 -15 4 -24 2z"/>
<path d="M5876 2871 c-10 -11 -16 -30 -14 -43 3 -22 5 -21 26 12 12 19 22 38
22 43 0 13 -17 7 -34 -12z"/>
<path d="M6108 2873 c-27 -8 -48 -20 -48 -28 0 -15 75 -234 84 -242 3 -3 13
-3 22 1 17 6 17 7 -3 92 -9 41 24 36 77 -11 30 -27 56 -42 65 -39 24 10 18 25
-26 70 -39 40 -41 45 -30 72 22 52 -15 103 -71 101 -13 -1 -44 -8 -70 -16z
m92 -37 c19 -24 8 -60 -23 -70 -33 -12 -44 -3 -53 41 -5 27 -3 32 17 36 42 8
46 7 59 -7z"/>
<path d="M4016 2773 c-72 -74 -92 -100 -84 -110 15 -18 19 -17 51 13 l28 26
47 -19 c44 -18 47 -22 52 -64 4 -31 10 -45 22 -47 20 -4 25 18 36 167 8 110 2
131 -38 131 -11 0 -61 -43 -114 -97z m109 -10 c-4 -32 -8 -59 -10 -61 -5 -5
-65 27 -65 35 0 9 64 81 74 82 4 1 5 -25 1 -56z"/>
<path d="M5873 2788 c-22 -11 -23 -16 -23 -142 0 -72 4 -137 9 -145 15 -23 41
5 41 44 0 29 5 34 43 49 54 20 60 20 82 -4 18 -20 50 -27 59 -12 3 5 -9 26
-26 48 -60 74 -150 174 -157 173 -3 0 -16 -5 -28 -11z m97 -129 c0 -11 -58
-31 -69 -24 -6 3 -11 32 -11 63 l1 57 39 -45 c22 -25 40 -48 40 -51z"/>
<path d="M4306 2758 c-35 -56 -106 -192 -106 -204 0 -23 91 -69 136 -68 74 2
134 67 134 145 0 41 -4 51 -35 78 -20 17 -53 40 -75 51 l-39 20 -15 -22z m82
-58 c28 -17 32 -25 32 -64 0 -36 -6 -50 -31 -75 -17 -17 -41 -31 -54 -31 -34
0 -75 17 -75 32 -1 20 74 158 85 158 6 0 25 -9 43 -20z"/>
<path d="M5683 2713 c-21 -8 -15 -37 22 -114 19 -41 35 -83 35 -96 0 -27 -35
-53 -72 -53 -24 0 -32 10 -75 93 -46 87 -74 114 -81 76 -5 -26 68 -167 100
-194 35 -30 50 -31 106 -5 52 23 76 70 63 118 -10 32 -78 183 -83 181 -2 0 -9
-3 -15 -6z"/>
<path d="M4586 2590 c-59 -18 -106 -89 -106 -161 0 -81 100 -142 176 -106 53
26 94 90 94 148 0 43 -4 50 -42 83 -23 20 -47 36 -54 36 -7 0 -18 2 -26 4 -7
2 -26 0 -42 -4z m99 -65 c30 -29 30 -38 6 -90 -24 -52 -54 -78 -91 -78 -80 0
-95 95 -27 171 28 31 80 30 112 -3z"/>
<path d="M5370 2559 c-37 -15 -78 -58 -90 -95 -27 -80 46 -184 129 -184 38 0
131 50 131 70 0 10 -47 109 -56 119 -2 2 -22 -4 -44 -14 -27 -12 -40 -24 -40
-37 0 -16 5 -19 29 -13 23 5 32 2 45 -17 23 -32 21 -37 -20 -54 -51 -22 -87
-5 -115 52 -31 66 -19 100 50 136 24 13 44 28 45 33 1 14 -34 16 -64 4z"/>
</g>
</svg>
